<svg xmlns="http://www.w3.org/2000/svg" width="49" height="54.5"><path d="M4.5 48h-4v-6h4m40 6h4v-6h-4m-26.167-4L5.582 50.75M14.332 38l-9.5 9.5m17.24-9.24L7.624 52.71M16.5 12V4.5A2.5 2.5 0 0 1 19 2h11a2.5 2.5 0 0 1 2.5 2.5V12m-8-12v14m-16 11.91h32M16.5 5.5A22.007 22.007 0 0 0 2.5 26l-2 2v4s7.25 2 24 2 24-2 24-2v-4l-2-2a22.007 22.007 0 0 0-14-20.5m-8 38.5a2 2 0 0 1 2 2s1.083 8 7 8h5a6 6 0 0 0 6-6v-6a4 4 0 0 0-4-4h-32a4 4 0 0 0-4 4v6a6 6 0 0 0 6 6h5c5.917 0 7-8 7-8a2 2 0 0 1 2-2z" fill="none" stroke="#9197a1"/></svg>