<svg xmlns="http://www.w3.org/2000/svg" width="65" height="60.94"><path d="M54.42 43.49H43.55l-4.13-5h-2.45m-2.97 0c-.58 0-1.43.01-2.03.01m-2.97 0h-2.51a8.005 8.005 0 0 1-.01-16.01c1.25 0 12.94.02 12.94.02l4.13-5h10.87m-27.93 4.98zM42.2 51.83l-5.22-6.31H26.49a15.019 15.019 0 1 1 0-30.038c.36 0 .48-.014.48-.014m3 .024h2.04M42.3 9.117l-5.32 6.4L35 15.5m-3.49-6.459V4.093a.6.6 0 0 0-.6-.6h-9.5a.6.6 0 0 0-.6.6v4.866a10.964 10.964 0 0 0-5.35 2.121L12.42 8a.587.587 0 0 0-.84 0l-6.63 6.721a.616.616 0 0 0 0 .855l3.2 3.245a10.5 10.5 0 0 0-2.43 5.264H1.1a.593.593 0 0 0-.59.6v9.64a.593.593 0 0 0 .59.6h4.84a13.538 13.538 0 0 0 2.25 5.22l-3.24 3.29a.61.61 0 0 0 0 .85l6.63 6.72a.584.584 0 0 0 .78.06 6.331 6.331 0 0 0 .79-.82c.34-.38.74-.84 1.14-1.27s.79-.86 1.09-1.13q.12-.1.21-.18a14.18 14.18 0 0 0 5.22 2.22v5.03a.6.6 0 0 0 .6.6h9.5a.6.6 0 0 0 .6-.6v-4.72M9.57 40.135zm27.4-9.64zm-2.96 0zm-5.01 0c-.58 0-1.43 0-2.03.01zm30.53-4.99a4.97 4.97 0 1 1-4.97 4.97 4.963 4.963 0 0 1 4.97-4.975zm0-13a4.97 4.97 0 1 1-4.97 4.969 4.966 4.966 0 0 1 4.97-4.974zm-14-12a4.969 4.969 0 1 1-4.97 4.969A4.966 4.966 0 0 1 45.53.5zm14 38a4.97 4.97 0 1 1-4.97 4.97 4.963 4.963 0 0 1 4.97-4.975zm-14 12a4.97 4.97 0 1 1-4.97 4.97 4.963 4.963 0 0 1 4.97-4.975z" fill="none"/></svg>