<svg id="brush" xmlns="http://www.w3.org/2000/svg" width="64.156" height="61.219" viewBox="0 0 64.156 61.219">
  <defs>
    <style>
      .cls-5 {
        fill: none;
        stroke: #9197a1;
        stroke-width: 1px;
        fill-rule: evenodd;
      }
    </style>
  </defs>
  <path class="cls-5" d="M780.133,1016.89a3.022,3.022,0,0,1-3.032-3.01v-4.51a3.032,3.032,0,0,0-6.063,0v18.11a3.032,3.032,0,0,1-6.063,0v-10.09a3.032,3.032,0,0,0-6.063,0v14.11a3.032,3.032,0,0,1-6.063,0v-20.85a3.032,3.032,0,0,0-6.064,0v0.73a3.032,3.032,0,0,1-6.063,0V992.319a3.032,3.032,0,0,1,6.063,0v4.514a3.032,3.032,0,0,0,6.064,0V985.3a3.032,3.032,0,0,1,6.063,0v5.015a3.032,3.032,0,0,0,6.063,0V984.3a3.032,3.032,0,0,1,6.063,0v7.02a3.032,3.032,0,0,0,6.063,0v-2.507a3.032,3.032,0,0,1,6.063,0v25.071A3.022,3.022,0,0,1,780.133,1016.89Zm-22.115-2.22,19.042-19.055a3.126,3.126,0,0,1,4.424,0l4.424,4.425a3.135,3.135,0,0,1,0,4.43l-19.042,19.06a3.131,3.131,0,0,1-4.424,0l-4.424-4.43A3.135,3.135,0,0,1,758.018,1014.67Zm27.227,11.86,3.667-3.67,3.318,3.32-3.667,3.67Zm3.685,2.96,2.933-2.94,11.8,11.81-2.933,2.93ZM786.6,999.938l4.7,4.642-5.918,16.3,2.99,2.95-1.5,1.47-4.049-3.99,5.918-16.3-1.589-1.57" transform="translate(-740.219 -980.781)"/>
</svg>
