<svg xmlns="http://www.w3.org/2000/svg" width="20.25" height="19.15" viewBox="0 0 20.25 19.15">
  <defs>
    <style>
      .cls-1 {
        fill: none;
        stroke: #9197a1;
        stroke-width: 1px;
        fill-rule: evenodd;
      }
    </style>
  </defs>
  <path id="clip.svg" class="cls-1" d="M638.463,5346.94l6.271-6.27a1.735,1.735,0,0,1,1.234-.49,1.754,1.754,0,0,1,1.284.56,1.793,1.793,0,0,1,.074,2.52l-7.8,7.85-2.568,2.57a3.259,3.259,0,0,1-5.579-2.32,3.3,3.3,0,0,1,.963-2.32l3.283-3.28,6.937-6.94a4.779,4.779,0,0,1,6.74-.1,4.534,4.534,0,0,1,1.333,3.33,4.9,4.9,0,0,1-1.432,3.41l-10.2,10.22" transform="translate(-630.875 -5336.88)"/>
</svg>
