<svg id="hat" xmlns="http://www.w3.org/2000/svg" width="49" height="54.5" viewBox="0 0 49 54.5">
  <defs>
    <style>
      .cls-4 {
        fill: none;
        stroke: #9197a1;
        stroke-width: 1px;
        fill-rule: evenodd;
      }
    </style>
  </defs>
  <path class="cls-4" d="M451.5,1029h-4v-6h4m40,6h4v-6h-4m-26.167-4-12.751,12.75m8.75-12.75-9.5,9.5m17.24-9.24-14.448,14.45M463.5,993v-7.5A2.5,2.5,0,0,1,466,983h11a2.5,2.5,0,0,1,2.5,2.5V993m-8-12v14m-16,11.91h32m-24-20.41a22.007,22.007,0,0,0-14,20.5l-2,2v4s7.25,2,24,2,24-2,24-2v-4l-2-2a22.007,22.007,0,0,0-14-20.5m-8,38.5a2,2,0,0,1,2,2s1.083,8,7,8h5a6,6,0,0,0,6-6v-6a4,4,0,0,0-4-4h-32a4,4,0,0,0-4,4v6a6,6,0,0,0,6,6h5c5.917,0,7-8,7-8A2,2,0,0,1,471.5,1025Z" transform="translate(-447 -981)"/>
</svg>
