<svg id="wheel" xmlns="http://www.w3.org/2000/svg" width="65" height="60.94" viewBox="0 0 65 60.94">
  <defs>
    <style>
      .cls-6 {
        fill: none;
        stroke-linecap: round;
        stroke-linejoin: round;
        stroke-width: 1px;
        fill-rule: evenodd;
      }
    </style>
  </defs>
  <path class="cls-6" d="M1083.42,1021.49h-10.87l-4.13-5h-2.45m-2.97,0c-0.58,0-1.43.01-2.03,0.01m-2.97,0h-2.51a8.005,8.005,0,0,1-.01-16.01c1.25,0,12.94.02,12.94,0.02l4.13-5h10.87m-27.93,4.98h0Zm15.71,29.34-5.22-6.31h-10.49a15.019,15.019,0,1,1,0-30.038c0.36,0,.48-0.014.48-0.014m3,0.024,2.04,0m10.29-6.375-5.32,6.4L1064,993.5m-3.49-6.459v-4.948a0.6,0.6,0,0,0-.6-0.6h-9.5a0.6,0.6,0,0,0-.6.6v4.866a10.964,10.964,0,0,0-5.35,2.121L1041.42,986a0.587,0.587,0,0,0-.84,0h0l-6.63,6.721a0.616,0.616,0,0,0,0,.855l3.2,3.245a10.5,10.5,0,0,0-2.43,5.264h-4.62a0.593,0.593,0,0,0-.59.6v9.64a0.593,0.593,0,0,0,.59.6h4.84a13.538,13.538,0,0,0,2.25,5.22l-3.24,3.29a0.61,0.61,0,0,0,0,.85h0l6.63,6.72a0.584,0.584,0,0,0,.78.06,6.331,6.331,0,0,0,.79-0.82c0.34-.38.74-0.84,1.14-1.27s0.79-.86,1.09-1.13q0.12-.1.21-0.18a14.18,14.18,0,0,0,5.22,2.22v5.03a0.6,0.6,0,0,0,.6.6h9.5a0.6,0.6,0,0,0,.6-0.6v-4.72m-21.94-10.06v0Zm27.4-9.64h0Zm-2.96,0h0Zm-5.01,0c-0.58,0-1.43,0-2.03.01Zm30.53-4.99a4.97,4.97,0,1,1-4.97,4.97A4.963,4.963,0,0,1,1088.53,1003.5Zm0-13a4.97,4.97,0,1,1-4.97,4.969A4.966,4.966,0,0,1,1088.53,990.5Zm-14-12a4.969,4.969,0,1,1-4.97,4.969A4.966,4.966,0,0,1,1074.53,978.5Zm14,38a4.97,4.97,0,1,1-4.97,4.97A4.963,4.963,0,0,1,1088.53,1016.5Zm-14,12a4.97,4.97,0,1,1-4.97,4.97A4.963,4.963,0,0,1,1074.53,1028.5Z" transform="translate(-1029 -978)"/>
</svg>
